<?xml version="1.0" encoding="UTF-8" standalone="no"?><svg xmlns:dc="http://purl.org/dc/elements/1.1/" xmlns:cc="http://creativecommons.org/ns#" xmlns:rdf="http://www.w3.org/1999/02/22-rdf-syntax-ns#" xmlns:svg="http://www.w3.org/2000/svg" xmlns="http://www.w3.org/2000/svg" width="512" height="512" id="svg2" version="1.1"><g id="g" transform="matrix(0.5225023,0,0,0.52319863,-5.2772732,-6.6940295)" style="fill:#d45500"><path style="fill:#d45500;fill-opacity:1;stroke:none" d="M 255.96875,0 C 169.44237,0 99.3125,70.202057 99.3125,156.84375 c 0,54.93586 28.22806,103.29012 70.96875,131.28125 C 84.538623,318.05196 19.28708,391.71486 1.15625,482.4375 0.47699701,484.37333 0.05225023,486.47989 0,488.625 l 0,0.0937 0,0.5625 c 0,11.30109 9.1304501,20.53125 20.46875,20.53125 11.3383,0 121.19724,5.72378 127.125,-5 24.37288,-44.09238 -67.861815,-42.91161 -95.40625,-33.59375 26.859809,-75.33335 99.10905,39.96875 200.78125,39.96875 102.09968,0 206.08441,-120.77561 216.84375,-32.4375 -22.41901,-13.21388 -122.65945,-20.636 -102.53125,26 5.38283,12.47177 112.9117,5.0625 124.25,5.0625 11.28605,0 20.46875,-9.17784 20.46875,-20.53125 l 0,-0.5625 0,-0.0937 c -0.0523,-2.14511 -0.477,-4.25167 -1.15625,-6.1875 C 492.66067,391.71486 427.39888,318.05196 341.65625,288.125 384.39694,260.13387 412.625,211.77961 412.625,156.84375 412.625,70.202057 342.49513,0 255.96875,0 z m 0,40.03125 c 64.42453,0 116.625,52.270859 116.625,116.78125 0,64.51039 -52.20047,116.8125 -116.625,116.8125 -64.42453,0 -116.625,-52.30211 -116.625,-116.8125 0,-64.510391 52.20047,-116.78125 116.625,-116.78125 z M 256.4375,352 c 41.352,0 75,33.648 75,75 0,41.355 -33.648,75 -75,75 -41.3535,0 -75,-33.645 -75,-75 0,-41.352 33.6465,-75 75,-75 z m 0,3.40625 c -39.456,0 -71.53125,32.13775 -71.53125,71.59375 0,39.4575 32.07525,71.53125 71.53125,71.53125 39.4575,0 71.53125,-32.07375 71.53125,-71.53125 0,-39.456 -32.07375,-71.59375 -71.53125,-71.59375 z m 0,7.28125 c 16.749,0 31.9955,6.387 43.4375,16.875 -0.276,-0.015 -0.56025,-0.0312 -0.84375,-0.0312 -6.3165,0 -10.78125,5.462 -10.78125,11.375 0,5.301 3.08275,9.79125 6.34375,15.09375 2.4465,4.2855 5.28125,9.82675 5.28125,17.78125 0,5.505 -2.12825,11.846 -4.90625,20.75 L 288.53125,466 l -23.25,-69.125 c 3.873,-0.204 7.375,-0.65625 7.375,-0.65625 3.4695,-0.4095 3.0305,-5.515 -0.4375,-5.3125 0,0 -10.43025,0.84375 -17.15625,0.84375 -6.321,0 -16.90625,-0.84375 -16.90625,-0.84375 -3.468,-0.204 -3.9055,5.107 -0.4375,5.3125 0,0 3.2835,0.45225 6.75,0.65625 L 254.5,424.28125 240.4375,466.53125 217,396.84375 c 3.876,-0.204 7.375,-0.65625 7.375,-0.65625 3.465,-0.4095 3.029,-5.48375 -0.4375,-5.28125 0,0 -10.36625,0.84375 -17.09375,0.84375 -1.206,0 -2.677,-0.0457 -4.1875,-0.0937 11.5035,-17.4645 31.30375,-28.96875 53.78125,-28.96875 z m 56.4375,33.40625 c 5.022,9.1635 7.875,19.72075 7.875,30.90625 0,23.7345 -12.84375,44.44275 -31.96875,55.59375 l 19.625,-56.8125 c 3.6705,-9.1785 4.9375,-16.4735 4.9375,-23 0,-2.37 -0.19275,-4.6385 -0.46875,-6.6875 z m -115.21875,4.6875 30.6875,84.125 C 206.88175,474.47975 192.125,452.4655 192.125,427 c 0,-9.327 1.96275,-18.21775 5.53125,-26.21875 z m 59.90625,31.84375 19.78125,54.1875 c 0.1275,0.318 0.29925,0.63025 0.46875,0.90625 -6.687,2.352 -13.884,3.59375 -21.375,3.59375 -6.3135,0 -12.4215,-0.89725 -18.1875,-2.59375 L 257.5625,432.625 z m 213.03125,55.53125 c 0.008,0.19234 0.0234,0.36861 0.0312,0.5625 l -0.34375,-0.375 c 0.11583,-0.0622 0.20209,-0.12503 0.3125,-0.1875 z" transform="matrix(1.9138672,0,0,1.91132,10.1,12.799995)" id="p"/></g></svg>
